<svg width="136" height="136" viewBox="0 0 146 146" fill="none" xmlns="http://www.w3.org/2000/svg">
<path d="M120.3 0.530029H25.2496C11.5198 0.530029 0.389648 11.6602 0.389648 25.39V120.44C0.389648 134.17 11.5198 145.3 25.2496 145.3H120.3C134.029 145.3 145.16 134.17 145.16 120.44V25.39C145.16 11.6602 134.029 0.530029 120.3 0.530029Z" fill="#F9AC17"/>
<path d="M69.11 64.1L79.11 58.44L48.3101 40.92L40.9501 36.72C40.2005 36.2931 39.352 36.0703 38.4894 36.0739C37.6268 36.0775 36.7802 36.3074 36.0342 36.7406C35.2883 37.1738 34.6691 37.7951 34.2384 38.5426C33.8077 39.29 33.5808 40.1374 33.5801 41V101C33.5799 101.875 33.8134 102.734 34.2565 103.488C34.6995 104.242 35.3359 104.864 36.1 105.29C36.8335 105.711 37.6646 105.931 38.5101 105.93C39.4171 105.924 40.3055 105.672 41.0801 105.2L65.2001 90.4L57.8201 85.88C57.1707 85.4819 56.5757 85.0013 56.05 84.45L43.4401 92.18V49.47L69.11 64.1Z" fill="black"/>
<path d="M115.77 45.05C115.022 44.6172 114.173 44.3893 113.31 44.3893C112.446 44.3893 111.597 44.6172 110.85 45.05L103.47 49.25L83.1696 60.8L73.1696 66.46L60.0296 73.94C59.3084 74.3489 58.7022 74.9334 58.2673 75.6392C57.8325 76.345 57.583 77.1493 57.5421 77.9773C57.5012 78.8053 57.6702 79.6302 58.0334 80.3754C58.3966 81.1207 58.9422 81.7621 59.6196 82.2401L59.8996 82.42L69.0496 88.02C82.9796 96.54 96.6696 104.91 110.67 113.49C111.419 113.945 112.275 114.193 113.152 114.209C114.028 114.224 114.893 114.007 115.658 113.579C116.422 113.15 117.06 112.527 117.505 111.772C117.95 111.016 118.186 110.157 118.19 109.28V49.28C118.188 48.4255 117.964 47.5861 117.54 46.8444C117.116 46.1026 116.506 45.4843 115.77 45.05ZM108.31 100.47L78.4796 82.22C76.3796 80.9267 74.2762 79.64 72.1696 78.36L92.8296 66.6L108.31 57.79V100.47Z" fill="black"/>
</svg>
